<svg width="0" height="0" class="hidden">
  <symbol xmlns="http://www.w3.org/2000/svg" viewBox="0 0 18 18" id="tel">
    <path d="M13.996 11.123l-1.838-.21a1.441 1.441 0 00-1.187.412l-1.332 1.332a10.888 10.888 0 01-4.769-4.77L6.21 6.55a1.44 1.44 0 00.412-1.187l-.21-1.824a1.448 1.448 0 00-1.44-1.28H3.72c-.818 0-1.498.68-1.448 1.498.384 6.18 5.327 11.115 11.5 11.499.817.05 1.498-.63 1.498-1.448v-1.252a1.434 1.434 0 00-1.274-1.432z"></path>
  </symbol>
  <symbol xmlns="http://www.w3.org/2000/svg" viewBox="0 0 16 15" id="box">
    <path d="M14.222 1.667v11.666H1.778V1.667h12.444zm0-1.667H1.778C.8 0 0 .75 0 1.667v11.666C0 14.25.8 15 1.778 15h12.444C15.2 15 16 14.25 16 13.333V1.667C16 .75 15.2 0 14.222 0z" fill="var(--cborder,--color-headlight)"></path>
    <rect id="check" width="16" height="15" rx="2" fill="var(--cback,transparent)"></rect>
    <path d="M3.957 7.752l-.069-.066-.069.065-.888.842-.076.072.076.073 3.496 3.334.069.066.069-.066 7.504-7.158.076-.073-.076-.072-.882-.841-.069-.066-.069.066-6.553 6.246-2.539-2.422z" fill="var(--color-antiaccent)" stroke="var(--color-antiaccent)" stroke-width=".2"></path>
  </symbol>
  <symbol xmlns="http://www.w3.org/2000/svg" viewBox="0 0 18 18" id="mail">
    <path d="M15 3H3c-.825 0-1.492.675-1.492 1.5l-.008 9c0 .825.675 1.5 1.5 1.5h12c.825 0 1.5-.675 1.5-1.5v-9c0-.825-.675-1.5-1.5-1.5zm-.3 3.188L9.398 9.502a.759.759 0 01-.796 0L3.3 6.188a.637.637 0 11.675-1.08L9 8.25l5.025-3.143a.637.637 0 11.675 1.08z"></path>
  </symbol>
  <symbol xmlns="http://www.w3.org/2000/svg" viewBox="0 0 18 18" id="name">
    <path d="M9 9a3 3 0 100-6 3 3 0 100 6zm0 1.5c-2.003 0-6 1.005-6 3v.75c0 .412.337.75.75.75h10.5c.412 0 .75-.338.75-.75v-.75c0-1.995-3.998-3-6-3z"></path>
  </symbol>
</svg>